<?xml version="1.0" encoding="UTF-8"?>
<svg version="1.1" xmlns="http://www.w3.org/2000/svg" width="32" height="32">
<path d="M0 0 C4.40621426 3.19070688 5.66917962 8.21153213 6.8125 13.3125 C7.37007935 17.85278899 7.16375704 19.71975375 4.8125 23.6875 C0.93009019 27.08460858 -1.12727615 27.14096699 -6.1875 27.3125 C-6.5175 26.3225 -6.8475 25.3325 -7.1875 24.3125 C-3.2275 23.8175 -3.2275 23.8175 0.8125 23.3125 C0.80089844 22.57644531 0.78929688 21.84039063 0.77734375 21.08203125 C0.76832031 20.10621094 0.75929688 19.13039063 0.75 18.125 C0.73839844 17.16207031 0.72679688 16.19914062 0.71484375 15.20703125 C0.80776647 12.45280186 1.2236406 9.99714247 1.8125 7.3125 C1.8125 6.6525 1.8125 5.9925 1.8125 5.3125 C-3.70022919 3.60165301 -6.71940155 2.8518557 -12.1875 5.3125 C-12.23004356 7.31204746 -12.22830783 9.31291636 -12.1875 11.3125 C-11.8575 11.6425 -11.5275 11.9725 -11.1875 12.3125 C-11.11570036 13.83178038 -11.10357993 15.35417482 -11.125 16.875 C-11.13402344 17.70128906 -11.14304687 18.52757813 -11.15234375 19.37890625 C-11.16394531 20.01699219 -11.17554688 20.65507812 -11.1875 21.3125 C-12.1775 21.6425 -13.1675 21.9725 -14.1875 22.3125 C-15.1775 21.6525 -16.1675 20.9925 -17.1875 20.3125 C-17.88974207 14.57752313 -16.56602226 9.50109075 -14.1875 4.3125 C-10.16068107 -0.56849264 -6.22039398 -1.95498096 0 0 Z " fill="#FFBE11" transform="translate(21.1875,2.6875)"/>
<path d="M0 0 C3 0 6 0 9 0 C9.95727848 5.3085443 9.95727848 5.3085443 10 8 C8.6875 9.8125 8.6875 9.8125 7 11 C6.01 12.485 6.01 12.485 5 14 C4.34 14 3.68 14 3 14 C2.87625 13.195625 2.7525 12.39125 2.625 11.5625 C2.315625 10.2940625 2.315625 10.2940625 2 9 C1.34 8.67 0.68 8.34 0 8 C0 6.68 0 5.36 0 4 C0.66 3.67 1.32 3.34 2 3 C1.34 2.67 0.68 2.34 0 2 C0 1.34 0 0.68 0 0 Z M5 4 C5 4.66 5 5.32 5 6 C5.66 6 6.32 6 7 6 C7 5.34 7 4.68 7 4 C6.34 4 5.68 4 5 4 Z " fill="#FFBE11" transform="translate(11,9)"/>
</svg>
