<?xml version="1.0" standalone="no"?>
<!DOCTYPE svg PUBLIC "-//W3C//DTD SVG 20010904//EN"
 "http://www.w3.org/TR/2001/REC-SVG-20010904/DTD/svg10.dtd">
<svg version="1.0" xmlns="http://www.w3.org/2000/svg"
 width="512.000000pt" height="512.000000pt" viewBox="0 0 512.000000 512.000000"
 preserveAspectRatio="xMidYMid meet">

<g transform="translate(0.000000,512.000000) scale(0.100000,-0.100000)"
fill="#000000" stroke="none">
<path d="M2441 4944 c-83 -22 -165 -71 -224 -133 -148 -155 -178 -373 -77
-560 17 -30 29 -55 27 -56 -1 -1 -339 26 -752 61 -412 35 -763 63 -778 64 -17
0 -38 -10 -52 -25 -25 -24 -25 -26 -25 -215 0 -232 -1 -229 125 -249 44 -7 88
-15 98 -17 16 -5 17 -36 17 -470 l0 -464 80 0 80 0 0 450 c0 398 2 450 15 450
16 0 962 -156 1003 -165 l22 -5 0 -1245 0 -1245 -174 0 c-152 0 -177 -2 -196
-18 -19 -15 -33 -73 -106 -437 -46 -231 -84 -428 -84 -438 0 -10 11 -29 25
-42 l24 -25 1071 0 1071 0 24 25 c14 13 25 32 25 42 0 10 -38 207 -84 438 -73
364 -87 422 -106 437 -19 16 -44 18 -196 18 l-174 0 0 1245 0 1245 23 5 c40 9
986 165 1002 165 13 0 15 -56 15 -490 l0 -490 80 0 80 0 0 504 c0 472 1 505
18 510 9 2 53 10 97 17 126 20 125 17 125 249 0 189 0 191 -25 215 -13 14 -34
25 -47 25 -13 0 -363 -29 -778 -64 -415 -35 -756 -63 -757 -61 -2 1 10 26 27
56 101 187 71 405 -77 560 -118 124 -300 177 -462 133z m270 -185 c67 -36 98
-68 137 -143 22 -43 26 -64 26 -136 0 -73 -4 -92 -27 -137 -60 -116 -160 -178
-287 -178 -127 0 -227 62 -287 178 -23 45 -27 64 -27 137 0 100 24 160 89 225
100 100 249 121 376 54z m-1048 -684 l902 -76 902 76 c496 41 908 75 917 75
13 0 16 -13 16 -79 0 -67 -3 -80 -17 -85 -10 -2 -324 -55 -698 -117 -609 -101
-682 -115 -702 -136 l-23 -22 0 -1296 0 -1295 -160 0 -160 0 0 720 0 720 -80
0 -80 0 0 -720 0 -720 -160 0 -160 0 0 1295 0 1296 -22 22 c-21 21 -94 35
-703 136 -374 62 -688 115 -697 117 -15 5 -18 18 -18 85 0 73 1 79 21 79 11 0
426 -34 922 -75z m1772 -3412 c32 -164 61 -308 63 -320 l4 -23 -942 0 -942 0
4 22 c2 13 31 157 63 321 l60 297 815 0 815 0 60 -297z"/>
<path d="M695 2788 c-36 -19 -45 -40 -45 -108 0 -62 -2 -68 -26 -79 -24 -11
-30 -8 -75 34 -39 37 -55 45 -85 45 -34 0 -46 -9 -155 -122 -104 -108 -118
-127 -119 -158 0 -28 9 -43 46 -81 37 -38 44 -50 39 -71 -5 -21 -14 -27 -52
-32 -25 -3 -58 -6 -74 -6 -18 0 -35 -9 -48 -26 -19 -24 -21 -40 -21 -186 0
-216 6 -228 124 -228 58 0 64 -2 75 -26 11 -24 8 -30 -34 -75 -36 -38 -45 -55
-45 -83 0 -40 4 -45 147 -180 124 -117 142 -121 214 -50 38 37 50 44 71 39 21
-5 27 -14 32 -52 3 -25 6 -58 6 -74 0 -18 9 -35 26 -48 24 -19 40 -21 186 -21
216 0 228 6 228 124 0 58 2 64 26 75 24 11 30 8 75 -34 39 -36 55 -45 85 -45
33 0 46 10 155 123 104 107 118 126 119 157 0 28 -9 43 -46 81 -37 38 -44 50
-39 71 5 21 14 27 52 32 25 3 58 6 74 6 18 0 35 9 48 26 19 24 21 40 21 179 0
158 -9 208 -40 225 -10 6 -48 10 -83 10 -59 0 -65 2 -76 26 -11 24 -8 30 34
75 36 39 45 55 45 85 0 33 -10 46 -122 155 -108 104 -127 118 -158 119 -28 0
-43 -9 -81 -46 -38 -37 -50 -44 -71 -39 -21 5 -27 14 -32 52 -3 25 -6 58 -6
74 0 18 -9 35 -26 48 -25 19 -40 21 -188 21 -97 0 -169 -5 -181 -12z m245
-205 c0 -44 5 -62 22 -80 12 -13 29 -23 37 -23 9 0 45 -14 79 -30 86 -41 107
-39 159 12 l43 42 45 -44 44 -43 -34 -38 c-52 -58 -53 -78 -11 -168 20 -42 36
-82 36 -88 0 -27 52 -53 107 -53 l54 0 -3 -62 -3 -63 -55 -3 c-63 -4 -95 -26
-106 -76 -3 -17 -17 -52 -30 -78 -35 -69 -31 -95 18 -145 l42 -43 -44 -45 -43
-44 -38 34 c-57 51 -81 53 -156 16 -35 -17 -70 -31 -79 -31 -9 0 -29 -13 -45
-29 -25 -26 -29 -37 -29 -86 l0 -56 -62 3 -63 3 -3 55 c-4 63 -26 95 -76 106
-17 3 -52 17 -78 30 -69 35 -95 31 -145 -18 l-43 -42 -45 44 -44 43 34 38 c51
57 53 81 16 156 -17 35 -31 70 -31 79 0 9 -13 29 -29 45 -26 25 -37 29 -86 29
l-56 0 3 63 3 62 55 3 c63 4 95 26 106 76 3 17 17 52 30 78 35 69 31 95 -18
145 l-42 43 44 45 43 44 38 -34 c58 -52 78 -53 168 -11 42 20 82 36 88 36 27
0 53 52 53 106 l0 54 65 0 65 0 0 -57z"/>
<path d="M763 2304 c-58 -21 -138 -96 -171 -158 -23 -44 -27 -63 -27 -141 0
-106 20 -158 88 -226 155 -156 416 -110 514 89 23 48 28 70 28 137 0 67 -5 89
-28 137 -31 62 -84 116 -149 149 -56 29 -192 36 -255 13z m197 -166 c76 -52
98 -125 61 -202 -53 -109 -201 -122 -274 -24 -28 38 -34 116 -12 162 39 82
152 113 225 64z"/>
<path d="M3753 2785 c-205 -55 -326 -233 -310 -456 16 -243 209 -527 542 -799
121 -99 228 -170 256 -170 50 0 328 218 470 368 307 323 402 626 272 864 -129
237 -487 277 -705 80 l-38 -34 -46 41 c-116 102 -296 145 -441 106z m250 -173
c58 -26 113 -76 154 -139 54 -85 112 -85 166 0 41 63 96 113 156 141 65 30
199 29 256 -1 89 -47 133 -116 142 -221 13 -162 -80 -343 -281 -551 -84 -86
-244 -224 -324 -280 l-33 -23 -97 73 c-122 93 -305 269 -376 363 -118 154
-173 296 -163 418 11 124 79 209 192 239 47 13 160 2 208 -19z"/>
</g>
</svg>
