<?xml version="1.0" standalone="no"?>
<!DOCTYPE svg PUBLIC "-//W3C//DTD SVG 20010904//EN"
 "http://www.w3.org/TR/2001/REC-SVG-20010904/DTD/svg10.dtd">
<svg version="1.0" xmlns="http://www.w3.org/2000/svg"
 width="512.000000pt" height="512.000000pt" viewBox="0 0 512.000000 512.000000"
 preserveAspectRatio="xMidYMid meet">

<g transform="translate(0.000000,512.000000) scale(0.100000,-0.100000)"
fill="#000000" stroke="none">
<path d="M2729 5007 c-18 -12 -44 -38 -56 -56 l-23 -34 0 -564 c0 -625 -3
-597 67 -650 l36 -28 562 -3 561 -2 44 23 c30 16 51 37 67 67 l23 44 -2 561
-3 562 -28 36 c-53 70 -25 67 -650 67 l-564 0 -34 -23z m927 -246 c23 -10 52
-34 65 -52 22 -32 24 -45 27 -179 3 -138 2 -147 -20 -180 -13 -19 -39 -45 -57
-57 -34 -23 -38 -23 -340 -23 -298 0 -307 1 -345 23 -25 14 -48 39 -63 66 -20
39 -23 58 -23 158 0 155 22 206 105 244 36 17 70 19 325 19 257 0 289 -2 326
-19z"/>
<path d="M3070 4525 l0 -85 255 0 255 0 0 85 0 85 -255 0 -255 0 0 -85z"/>
<path d="M4552 4670 c-12 -11 -24 -31 -27 -43 -3 -12 -5 -145 -3 -295 l3 -274
28 -24 c28 -24 29 -24 268 -24 l241 0 29 29 29 29 0 287 0 286 -25 24 -24 25
-249 0 c-236 0 -249 -1 -270 -20z"/>
<path d="M29 4581 l-29 -29 0 -202 c0 -200 0 -201 25 -225 19 -20 34 -25 74
-25 l49 0 198 238 c108 130 204 245 212 255 14 16 2 17 -242 17 l-258 0 -29
-29z"/>
<path d="M582 4355 l-212 -255 145 0 144 0 198 238 c109 130 204 245 212 255
13 16 5 17 -130 17 l-144 0 -213 -255z"/>
<path d="M1100 4363 c-113 -135 -206 -250 -208 -255 -2 -4 61 -8 140 -7 l143
0 195 235 c107 129 201 244 209 254 13 20 11 20 -130 20 l-144 0 -205 -247z"/>
<path d="M1623 4372 c-109 -130 -204 -245 -212 -255 -13 -16 -5 -17 130 -17
l144 0 208 249 c114 137 207 252 207 255 0 3 -63 6 -140 6 l-139 0 -198 -238z"/>
<path d="M2134 4373 c-108 -131 -204 -246 -212 -255 -14 -17 -1 -18 266 -18
l282 0 0 255 0 255 -69 0 -69 0 -198 -237z"/>
<path d="M4145 4598 c-43 -23 -45 -33 -45 -248 0 -203 0 -207 23 -228 20 -19
35 -22 101 -22 68 0 80 3 101 25 25 24 25 25 25 229 l0 204 -31 26 c-26 22
-40 26 -92 26 -34 0 -71 -6 -82 -12z"/>
<path d="M1110 3533 l-1 -398 -491 -400 c-270 -220 -499 -413 -509 -430 -28
-44 -26 -132 4 -175 12 -18 34 -42 49 -53 35 -26 114 -33 158 -14 19 8 224
170 455 360 l420 345 45 -36 c25 -20 211 -174 414 -341 203 -167 385 -313 403
-324 43 -25 131 -20 171 10 69 51 92 142 56 219 -12 25 -145 140 -478 413
-254 207 -476 388 -494 401 l-32 24 0 398 0 398 -85 0 -85 0 0 -397z"/>
<path d="M2900 3306 c0 -181 1 -185 24 -213 l24 -28 359 -3 c197 -2 368 0 381
3 12 3 31 14 42 25 19 19 20 34 20 210 l0 190 -425 0 -425 0 0 -184z"/>
<path d="M3109 2877 c-9 -7 -21 -22 -27 -34 -17 -31 -17 -1995 0 -2026 23 -44
34 -46 244 -47 189 0 203 1 228 21 l26 20 0 1019 0 1019 -26 20 c-25 20 -39
21 -228 21 -142 -1 -206 -4 -217 -13z"/>
<path d="M1123 2267 c-316 -280 -761 -685 -771 -703 -10 -19 -12 -174 -10
-730 l3 -706 24 -19 c20 -17 40 -19 167 -19 l144 0 0 475 c0 512 0 517 53 573
46 50 59 52 333 52 256 0 257 0 300 -25 28 -16 49 -39 63 -68 20 -42 21 -56
21 -525 l0 -482 269 0 c148 0 277 3 286 6 45 18 45 22 45 757 l0 694 -22 28
c-16 21 -527 485 -761 692 -51 45 -93 45 -144 0z"/>
<path d="M850 555 l0 -465 215 0 215 0 0 465 0 465 -215 0 -215 0 0 -465z"/>
<path d="M2679 593 c-15 -2 -51 -18 -80 -36 -97 -58 -135 -158 -127 -329 4
-75 8 -91 28 -113 l23 -25 804 0 804 0 24 25 c24 23 25 29 25 152 0 113 -3
134 -24 178 -12 28 -41 67 -64 87 -76 69 -71 68 -766 67 -342 -1 -633 -4 -647
-6z"/>
</g>
</svg>
