<?xml version="1.0" standalone="no"?>
<!DOCTYPE svg PUBLIC "-//W3C//DTD SVG 20010904//EN"
 "http://www.w3.org/TR/2001/REC-SVG-20010904/DTD/svg10.dtd">
<svg version="1.0" xmlns="http://www.w3.org/2000/svg"
 width="512.000000pt" height="512.000000pt" viewBox="0 0 512.000000 512.000000"
 preserveAspectRatio="xMidYMid meet">

<g transform="translate(0.000000,512.000000) scale(0.100000,-0.100000)"
fill="#000000" stroke="none">
<path d="M2186 5018 c-24 -21 -29 -41 -56 -213 -17 -104 -32 -199 -35 -210 -3
-16 -23 -25 -95 -44 -120 -31 -322 -114 -437 -179 -51 -29 -95 -52 -99 -52 -3
0 -76 51 -162 114 -183 132 -194 138 -225 131 -29 -8 -513 -491 -522 -522 -8
-29 -1 -42 131 -225 63 -86 114 -159 114 -162 0 -4 -23 -48 -52 -99 -65 -115
-148 -317 -179 -437 -19 -72 -28 -92 -44 -95 -11 -3 -105 -18 -210 -35 -172
-27 -192 -32 -213 -56 -22 -25 -22 -26 -22 -374 0 -348 0 -349 22 -374 21 -23
41 -29 213 -56 105 -16 199 -32 210 -35 16 -3 25 -23 44 -95 31 -120 114 -322
179 -437 29 -51 52 -95 52 -99 0 -3 -51 -76 -114 -162 -132 -183 -139 -196
-131 -225 9 -31 493 -514 522 -522 31 -7 42 -1 227 133 l159 115 66 -37 c153
-86 349 -167 489 -202 56 -14 74 -23 77 -39 3 -11 18 -105 35 -210 27 -172 32
-192 56 -212 25 -23 26 -23 374 -23 348 0 349 0 374 22 23 21 29 41 51 183 14
88 28 172 31 187 5 27 6 26 66 -38 242 -258 622 -392 974 -343 617 86 1058
663 973 1275 -35 250 -165 505 -343 672 -64 60 -65 61 -38 66 15 3 99 17 187
31 142 22 162 28 183 51 22 25 22 26 22 374 0 348 0 349 -22 374 -21 24 -41
29 -213 56 -104 17 -199 32 -210 35 -16 3 -25 21 -39 77 -35 140 -116 336
-202 489 l-37 66 115 159 c134 185 141 198 133 227 -9 31 -493 514 -522 522
-31 7 -42 1 -227 -133 l-158 -115 -67 37 c-153 86 -349 167 -489 202 -56 14
-74 23 -77 39 -3 11 -18 106 -35 210 -27 172 -32 192 -56 213 -25 22 -26 22
-374 22 -348 0 -349 0 -374 -22z m663 -340 c23 -147 37 -208 50 -221 9 -10 66
-31 127 -46 197 -53 353 -117 518 -216 51 -30 104 -55 117 -55 16 0 87 45 193
121 l168 122 179 -179 c98 -98 179 -181 179 -184 0 -3 -54 -79 -120 -170 -77
-105 -120 -173 -120 -189 0 -13 27 -70 60 -125 98 -168 158 -312 211 -510 15
-61 36 -118 46 -127 13 -13 71 -26 209 -48 105 -17 196 -31 202 -31 9 0 12
-69 12 -260 0 -191 -3 -260 -12 -260 -38 0 -393 -63 -408 -72 -15 -10 -33 -5
-100 26 -44 20 -109 44 -143 53 l-62 16 0 231 c-1 201 -3 244 -22 329 -73 325
-210 575 -443 808 -232 233 -506 381 -827 446 -136 28 -492 25 -626 -5 -324
-72 -576 -210 -808 -441 -231 -232 -369 -483 -441 -808 -19 -85 -22 -128 -22
-323 0 -248 10 -322 74 -512 156 -466 542 -852 1008 -1008 191 -64 264 -74
518 -75 l231 0 16 -62 c9 -34 33 -99 53 -143 31 -67 36 -85 26 -100 -6 -10
-26 -109 -44 -219 l-32 -201 -258 0 c-189 0 -258 3 -258 12 0 6 -14 97 -30
202 -36 225 -35 224 -157 251 -167 37 -352 112 -526 214 -57 34 -115 61 -128
61 -16 0 -85 -44 -189 -120 -91 -66 -167 -120 -170 -120 -3 0 -86 81 -184 179
l-179 179 24 33 c13 19 68 94 121 168 62 85 98 144 98 160 0 13 -27 70 -60
125 -98 168 -158 312 -211 510 -15 61 -36 118 -46 127 -13 13 -74 27 -220 50
l-203 33 0 256 0 256 203 32 c148 24 207 37 220 50 10 10 31 67 46 128 53 198
113 342 211 510 33 55 60 112 60 125 0 16 -43 84 -120 189 -66 91 -120 167
-120 170 0 3 81 86 179 184 l179 179 33 -24 c19 -13 94 -68 168 -121 84 -61
144 -98 159 -98 14 0 72 27 129 61 173 101 414 196 565 223 76 14 84 29 118
242 16 105 30 196 30 202 0 9 69 12 258 12 l258 0 33 -202z m1 -702 c488 -112
873 -434 1051 -881 62 -157 90 -293 96 -471 3 -88 3 -186 -1 -217 l-7 -57 -93
0 c-117 0 -247 -22 -356 -61 -47 -17 -93 -33 -102 -36 -16 -5 -18 4 -18 90 0
132 -23 191 -104 273 -93 92 -236 150 -458 185 l-78 12 55 59 c95 102 143 221
152 370 7 116 -7 200 -48 278 -35 67 -51 86 -112 133 -135 103 -398 104 -533
1 -61 -47 -87 -78 -117 -139 -37 -74 -51 -161 -44 -273 9 -149 57 -268 152
-370 l55 -60 -57 -7 c-98 -12 -275 -61 -348 -96 -96 -46 -184 -134 -213 -212
-21 -56 -22 -72 -22 -467 l0 -409 26 -20 c26 -21 36 -21 563 -21 l537 0 -24
-92 c-16 -64 -25 -134 -29 -225 l-6 -132 -55 -7 c-30 -4 -128 -4 -216 -1 -135
4 -180 10 -277 35 -269 69 -491 194 -679 382 -187 188 -311 406 -383 679 -29
112 -31 124 -31 331 -1 176 2 229 18 295 94 407 304 712 639 929 170 111 380
189 592 220 67 10 412 -3 475 -18z m-137 -439 c88 -52 123 -140 114 -285 -12
-200 -124 -344 -267 -344 -101 0 -192 76 -242 202 -18 45 -22 76 -22 170 -1
101 2 121 23 163 45 92 121 129 256 124 78 -2 98 -7 138 -30z m191 -907 c187
-40 280 -86 330 -164 25 -38 26 -46 26 -177 l0 -137 -42 -33 c-24 -18 -67 -55
-95 -83 l-53 -50 0 123 c0 122 0 123 -29 152 -16 16 -37 29 -46 29 -24 0 -72
-27 -79 -45 -3 -9 -6 -119 -6 -245 0 -126 -3 -235 -6 -244 -5 -14 -46 -16
-350 -16 l-344 0 0 244 c0 134 -3 252 -6 261 -7 18 -55 45 -79 45 -9 0 -30
-13 -46 -29 l-29 -29 0 -246 0 -246 -95 0 -95 0 0 343 0 343 26 40 c53 82 171
136 384 174 149 27 488 22 634 -10z m1191 -459 c188 -39 347 -123 483 -255
134 -128 222 -278 269 -453 36 -136 38 -344 5 -477 -72 -286 -267 -525 -534
-651 -145 -68 -243 -89 -418 -89 -123 1 -160 5 -242 27 -428 114 -728 502
-728 942 0 461 324 859 780 956 114 24 270 24 385 0z"/>
<path d="M4350 1720 c-19 -3 -48 -14 -65 -23 -16 -8 -145 -131 -285 -271
l-255 -256 -100 99 c-118 117 -148 134 -230 134 -168 0 -282 -172 -214 -323
24 -55 383 -421 444 -452 57 -30 145 -30 207 0 35 17 136 114 391 375 189 194
352 368 363 387 27 50 25 152 -3 206 -48 91 -153 143 -253 124z m103 -193 c14
-17 18 -33 13 -51 -4 -16 -140 -161 -349 -371 -266 -268 -347 -346 -366 -345
-19 0 -73 48 -213 188 -104 103 -191 197 -195 210 -13 53 51 106 99 82 12 -7
80 -68 149 -136 111 -109 130 -124 160 -124 32 -1 54 20 314 284 154 157 291
290 305 295 32 11 59 1 83 -32z"/>
</g>
</svg>
