<?xml version="1.0" standalone="no"?>
<!DOCTYPE svg PUBLIC "-//W3C//DTD SVG 20010904//EN"
 "http://www.w3.org/TR/2001/REC-SVG-20010904/DTD/svg10.dtd">
<svg version="1.0" xmlns="http://www.w3.org/2000/svg"
 width="512.000000pt" height="512.000000pt" viewBox="0 0 512.000000 512.000000"
 preserveAspectRatio="xMidYMid meet">

<g transform="translate(0.000000,512.000000) scale(0.100000,-0.100000)"
fill="#000000" stroke="none">
<path d="M3443 5096 c-26 -23 -28 -28 -31 -130 l-4 -106 -1673 0 c-920 0
-1681 -3 -1690 -6 -38 -15 -45 -55 -45 -253 0 -186 0 -190 24 -218 24 -28 24
-28 170 -31 l146 -3 0 -815 c0 -909 -3 -864 68 -883 20 -6 42 -11 49 -11 19 0
53 -51 53 -80 0 -43 -35 -80 -76 -80 -47 0 -69 13 -84 50 l-12 30 -84 0 c-63
0 -84 -3 -84 -13 0 -28 31 -115 45 -127 8 -7 15 -18 15 -25 0 -6 -45 -72 -101
-146 -55 -74 -107 -146 -115 -161 -11 -21 -14 -73 -14 -220 l0 -192 113 -113
113 -113 192 0 c146 0 200 3 220 14 15 8 69 57 120 110 l92 95 0 205 0 205
-115 154 -115 155 30 57 c23 44 30 70 30 114 -1 95 -61 194 -138 226 l-32 14
0 775 0 776 1450 0 1450 0 0 -39 c0 -103 36 -131 170 -131 l90 0 0 -2005 0
-2005 -170 0 -170 0 0 1705 0 1705 -85 0 -85 0 0 -170 0 -170 -255 0 -255 0 0
85 0 85 -90 0 -90 0 0 -85 0 -85 -255 0 -255 0 0 45 0 45 -85 0 -85 0 0 -45 0
-45 -255 0 -255 0 0 130 0 130 555 0 555 0 0 85 0 85 -555 0 -555 0 0 170 0
170 -85 0 -85 0 0 -1920 0 -1920 -68 0 -67 0 -200 201 c-110 111 -214 207
-232 215 -24 10 -39 11 -60 3 -15 -6 -120 -102 -233 -215 -144 -142 -212 -204
-228 -204 -21 0 -22 -4 -22 -85 l0 -85 2560 0 2560 0 0 85 0 85 -30 0 c-16 0
-30 2 -30 4 0 2 11 24 25 48 55 98 39 215 -40 293 -24 24 -59 51 -79 59 -34
14 -35 15 -24 53 22 79 -9 178 -74 239 -55 53 -95 68 -173 69 -59 0 -78 -5
-123 -29 -96 -54 -139 -138 -129 -258 l6 -67 -33 -11 c-18 -5 -50 -29 -73 -53
-79 -83 -96 -192 -44 -291 l30 -56 -75 0 -74 0 0 2005 0 2005 89 0 c49 0 101
4 116 10 31 12 55 63 55 119 l0 40 316 3 316 3 24 28 c24 28 24 32 24 218 0
198 -7 238 -45 253 -9 3 -155 6 -325 6 l-308 0 -4 106 c-3 102 -4 107 -31 130
l-28 24 -454 0 -454 0 -28 -24z m485 -318 l2 -168 -175 0 -175 0 0 170 0 170
173 -2 172 -3 3 -167z m342 -128 l0 -300 -342 2 -343 3 0 40 0 40 232 5 c225
5 233 6 255 28 22 22 23 29 26 252 l3 230 85 0 84 0 0 -300z m-3913 -41 c68
-45 123 -83 123 -85 0 -2 -70 -4 -155 -4 l-155 0 0 85 0 85 32 0 c24 0 65 -22
155 -81z m525 6 l-112 -75 -112 75 -113 75 225 0 225 0 -113 -75z m1020 0
l-112 -75 -112 75 -113 75 225 0 225 0 -113 -75z m1122 66 c-23 -21 -199 -134
-209 -134 -10 0 -186 113 -209 134 -6 5 85 9 209 9 124 0 215 -4 209 -9z m386
-76 l0 -85 -152 0 c-109 0 -149 3 -141 11 6 6 60 44 119 84 78 53 118 74 142
74 l32 1 0 -85z m1249 81 c-2 -1 -52 -35 -111 -75 l-108 -71 0 75 0 75 112 0
c61 0 109 -2 107 -4z m-3261 -88 l107 -73 -112 -3 c-62 -1 -164 -1 -225 0
l-113 3 105 72 c58 39 111 72 118 72 7 1 61 -32 120 -71z m1026 0 l110 -73
-112 -3 c-61 -1 -164 -1 -228 0 l-117 3 109 72 c60 40 113 73 119 73 5 0 58
-33 119 -72z m2526 -3 l0 -75 -112 0 c-80 0 -109 3 -101 11 16 16 197 138 206
138 4 1 7 -33 7 -74z m-1020 -420 c0 -3 -20 -36 -45 -73 l-45 -67 0 73 0 72
45 0 c25 0 45 -2 45 -5z m80 -422 l0 -228 -76 113 c-41 62 -74 117 -72 121 4
11 142 221 146 221 1 0 2 -102 2 -227z m-20 -508 c0 -7 -141 -225 -146 -225
-2 0 -4 102 -4 227 l0 228 75 -112 c41 -62 75 -115 75 -118z m-2200 -245 l0
-70 -255 0 -255 0 0 70 0 70 255 0 255 0 0 -70z m680 -292 l0 -362 -98 97
c-54 53 -111 101 -126 107 -15 5 -86 10 -157 10 l-129 0 0 255 0 255 255 0
255 0 0 -362z m690 -63 l0 -425 -255 0 -255 0 0 425 0 425 255 0 255 0 0 -425z
m848 -27 l-3 -112 -74 112 -74 112 74 112 74 112 3 -112 c1 -62 1 -162 0 -224z
m-2218 -2 c0 -80 5 -157 10 -172 19 -50 32 -53 211 -54 l166 0 176 -170 176
-170 316 0 315 0 0 -940 0 -940 -940 0 -940 0 0 1295 0 1295 255 0 255 0 0
-144z m2130 -286 l73 -110 -73 -110 c-40 -60 -74 -110 -76 -110 -2 0 -4 99 -4
220 0 121 2 220 4 220 2 0 36 -49 76 -110z m-3387 -109 c31 -43 57 -81 57 -85
0 -3 -74 -6 -165 -6 -91 0 -165 3 -165 6 0 3 27 41 60 85 l61 79 47 0 47 -1
58 -78z m147 -373 l0 -112 -57 -58 -57 -58 -135 0 -135 0 -63 62 -63 62 0 108
0 108 255 0 255 0 0 -112z m3328 -249 l-3 -110 -73 106 c-40 58 -72 110 -70
114 2 5 35 56 73 114 l70 106 3 -110 c1 -60 1 -159 0 -220z m-18 -404 c0 -3
-34 -56 -75 -118 l-75 -112 0 230 0 230 75 -112 c41 -62 75 -115 75 -118z m20
-517 l0 -223 -76 113 -76 114 73 109 c39 60 73 109 75 109 2 0 4 -100 4 -222z
m742 65 c36 -33 31 -98 -11 -130 -27 -21 -79 -15 -106 12 -44 43 -26 115 35
138 21 8 62 -2 82 -20z m-203 -324 c88 -31 67 -158 -27 -159 -94 -1 -111 130
-22 163 8 3 15 6 16 6 1 1 15 -4 33 -10z m389 -43 c27 -55 -12 -116 -73 -116
-45 0 -85 37 -85 78 0 36 32 79 63 84 35 6 81 -16 95 -46z m-4313 -96 l110
-110 -220 0 -220 0 110 110 c60 61 110 110 110 110 0 0 50 -49 110 -110z
m3292 5 c33 -50 63 -96 67 -102 5 -10 -11 -13 -68 -13 l-76 0 0 112 c0 64 4
108 9 103 4 -6 35 -50 68 -100z"/>
<path d="M1450 2135 l0 -85 85 0 85 0 0 85 0 85 -85 0 -85 0 0 -85z"/>
<path d="M1790 2135 l0 -85 85 0 85 0 0 85 0 85 -85 0 -85 0 0 -85z"/>
<path d="M2130 2135 l0 -85 85 0 85 0 0 85 0 85 -85 0 -85 0 0 -85z"/>
<path d="M1450 1795 l0 -85 85 0 85 0 0 85 0 85 -85 0 -85 0 0 -85z"/>
<path d="M1790 1795 l0 -85 85 0 85 0 0 85 0 85 -85 0 -85 0 0 -85z"/>
<path d="M2137 1873 c-4 -3 -7 -42 -7 -85 l0 -78 85 0 85 0 0 85 0 85 -78 0
c-43 0 -82 -3 -85 -7z"/>
<path d="M2477 1874 c-4 -4 -7 -43 -7 -86 l0 -78 90 0 91 0 -3 83 -3 82 -80 3
c-45 1 -84 0 -88 -4z"/>
<path d="M2820 1795 l0 -85 85 0 86 0 -3 83 -3 82 -82 3 -83 3 0 -86z"/>
<path d="M1450 1455 l0 -85 85 0 85 0 0 85 0 85 -85 0 -85 0 0 -85z"/>
<path d="M1797 1533 c-4 -3 -7 -42 -7 -85 l0 -78 85 0 85 0 0 85 0 85 -78 0
c-43 0 -82 -3 -85 -7z"/>
<path d="M2137 1533 c-4 -3 -7 -42 -7 -85 l0 -78 85 0 85 0 0 85 0 85 -78 0
c-43 0 -82 -3 -85 -7z"/>
<path d="M2477 1534 c-4 -4 -7 -43 -7 -86 l0 -78 90 0 91 0 -3 83 -3 82 -80 3
c-45 1 -84 0 -88 -4z"/>
<path d="M2820 1455 l0 -85 85 0 86 0 -3 83 -3 82 -82 3 -83 3 0 -86z"/>
<path d="M1450 1105 l0 -85 85 0 85 0 0 85 0 85 -85 0 -85 0 0 -85z"/>
<path d="M1792 1108 l3 -83 83 -3 82 -3 0 86 0 85 -85 0 -86 0 3 -82z"/>
<path d="M2132 1108 l3 -83 83 -3 82 -3 0 86 0 85 -85 0 -86 0 3 -82z"/>
<path d="M2472 1108 l3 -83 85 0 85 0 3 83 3 82 -91 0 -91 0 3 -82z"/>
<path d="M2820 1105 l0 -86 83 3 82 3 3 83 3 82 -86 0 -85 0 0 -85z"/>
<path d="M1450 765 l0 -85 85 0 85 0 0 85 0 85 -85 0 -85 0 0 -85z"/>
<path d="M1790 765 l0 -85 85 0 85 0 0 85 0 85 -85 0 -85 0 0 -85z"/>
<path d="M2132 768 l3 -83 83 -3 82 -3 0 86 0 85 -85 0 -86 0 3 -82z"/>
<path d="M2472 768 l3 -83 85 0 85 0 3 83 3 82 -91 0 -91 0 3 -82z"/>
<path d="M2820 765 l0 -86 83 3 82 3 3 83 3 82 -86 0 -85 0 0 -85z"/>
<path d="M1450 425 l0 -85 85 0 85 0 0 85 0 85 -85 0 -85 0 0 -85z"/>
<path d="M1790 425 l0 -85 85 0 85 0 0 85 0 85 -85 0 -85 0 0 -85z"/>
<path d="M2130 425 l0 -85 85 0 85 0 0 85 0 85 -85 0 -85 0 0 -85z"/>
<path d="M2472 428 l3 -83 85 0 85 0 3 83 3 82 -91 0 -91 0 3 -82z"/>
<path d="M2820 425 l0 -85 85 0 85 0 0 85 0 85 -85 0 -85 0 0 -85z"/>
</g>
</svg>
