<?xml version="1.0" standalone="no"?>
<!DOCTYPE svg PUBLIC "-//W3C//DTD SVG 20010904//EN"
 "http://www.w3.org/TR/2001/REC-SVG-20010904/DTD/svg10.dtd">
<svg version="1.0" xmlns="http://www.w3.org/2000/svg"
 width="512.000000pt" height="512.000000pt" viewBox="0 0 512.000000 512.000000"
 preserveAspectRatio="xMidYMid meet">

<g transform="translate(0.000000,512.000000) scale(0.100000,-0.100000)"
fill="#000000" stroke="none">
<path d="M2924 5102 c-31 -11 -76 -39 -110 -69 -33 -29 -667 -661 -1411 -1405
-1463 -1464 -1389 -1385 -1400 -1507 -4 -42 0 -70 17 -116 21 -56 45 -83 379
-418 399 -402 419 -417 536 -417 128 0 36 -85 1572 1452 1533 1534 1443 1436
1443 1564 0 116 -16 136 -417 535 -331 330 -362 358 -416 378 -70 25 -125 26
-193 3z"/>
<path d="M3597 4922 l-47 -48 80 -79 80 -79 50 49 50 49 -77 78 c-43 43 -80
78 -83 78 -3 0 -27 -22 -53 -48z"/>
<path d="M2720 2251 c-81 -22 -129 -43 -199 -88 -36 -22 -310 -288 -746 -723
-442 -440 -705 -695 -730 -708 -94 -47 -217 -47 -310 0 -22 11 -102 82 -178
157 -172 170 -192 204 -192 336 0 71 5 100 21 136 l22 47 -78 77 c-43 43 -82
75 -88 71 -5 -3 -26 -39 -47 -81 -91 -185 -78 -393 35 -563 21 -32 105 -123
187 -203 116 -114 162 -152 213 -177 172 -83 345 -83 520 0 59 29 128 94 770
734 624 622 712 706 769 734 68 34 145 47 207 36 30 -6 61 -31 164 -132 l126
-123 77 77 77 77 -138 137 c-146 145 -183 170 -277 187 -79 15 -127 13 -205
-8z"/>
<path d="M3422 1697 l-272 -272 682 -681 c629 -627 688 -683 744 -707 151 -66
314 -36 428 79 117 117 146 282 75 434 -28 60 -82 117 -707 743 l-677 677
-273 -273z"/>
</g>
</svg>
