<?xml version="1.0" encoding="UTF-8"?>
<svg version="1.1" xmlns="http://www.w3.org/2000/svg" width="512" height="512">
<path d="M0 0 C4.63049847 1.98192541 8.27286483 5.55754626 12.0078125 8.859375 C13.19890625 9.88611328 13.19890625 9.88611328 14.4140625 10.93359375 C26.19669742 21.28165462 36.65714427 32.28058352 46.0078125 44.859375 C46.64348145 45.695896 46.64348145 45.695896 47.29199219 46.54931641 C54.5499758 56.10854387 60.48530329 66.21279637 66.0078125 76.859375 C66.39855957 77.60815918 66.78930664 78.35694336 67.19189453 79.12841797 C76.69941674 97.58091071 89.37742007 123.56164331 84.3203125 144.73828125 C81.92617102 151.27229237 78.39447035 157.28227075 71.93457031 160.29052734 C68.88075848 162.47494257 68.88075848 162.47494257 68.47836304 165.0352478 C68.31163536 167.8847114 68.33417205 170.67815169 68.421875 173.53125 C68.43036469 174.56880432 68.43885437 175.60635864 68.44760132 176.675354 C68.48117609 179.98775271 68.55646709 183.29771278 68.6328125 186.609375 C68.66290664 188.85543358 68.6902834 191.10153034 68.71484375 193.34765625 C68.78098028 198.85239388 68.88136947 204.35571025 69.0078125 209.859375 C69.75111816 210.11114502 70.49442383 210.36291504 71.26025391 210.62231445 C72.24171387 210.96480225 73.22317383 211.30729004 74.234375 211.66015625 C75.20455566 211.99442627 76.17473633 212.32869629 77.17431641 212.6730957 C84.09456704 215.57034694 88.72581232 220.85204244 92.109375 227.4375 C93.61408916 231.49368599 93.90909476 235.5606661 94.0078125 239.859375 C95.08160156 239.82457031 96.15539062 239.78976562 97.26171875 239.75390625 C98.69790089 239.72574582 100.13410012 239.69844809 101.5703125 239.671875 C102.27478516 239.64673828 102.97925781 239.62160156 103.70507812 239.59570312 C110.17422213 239.50626795 114.75157822 240.91080903 119.7578125 245.234375 C124.20558438 250.4234422 125.45287336 254.12894805 125.41186523 260.93505859 C125.42216011 262.13360725 125.42216011 262.13360725 125.43266296 263.35636902 C125.45092181 265.99036575 125.44709434 268.62376622 125.44140625 271.2578125 C125.44596901 273.09477939 125.45127487 274.93174457 125.45729065 276.76870728 C125.46622034 280.61703428 125.46380085 284.46515375 125.45385742 288.31347656 C125.44237721 293.23523786 125.46256531 298.15628069 125.49177456 303.07794762 C125.51015904 306.87161786 125.50983947 310.66511672 125.50413704 314.45882034 C125.50398405 316.27283357 125.51000987 318.08685859 125.52242851 319.90082932 C125.53737671 322.4426393 125.52663365 324.98313237 125.50952148 327.52490234 C125.51918945 328.26799149 125.52885742 329.01108063 125.53881836 329.77668762 C125.45252395 335.92594864 123.55973778 340.07659095 119.41015625 344.6015625 C115.46396271 347.65328551 112.73638157 348.99220173 107.77734375 348.95703125 C106.97490234 348.95380859 106.17246094 348.95058594 105.34570312 348.94726562 C104.51232422 348.93888672 103.67894531 348.93050781 102.8203125 348.921875 C101.97533203 348.91736328 101.13035156 348.91285156 100.25976562 348.90820312 C98.17575095 348.89642903 96.09177273 348.8784939 94.0078125 348.859375 C94.04390625 349.92027344 94.08 350.98117187 94.1171875 352.07421875 C93.91719784 358.99528953 90.36760882 365.55692001 86.0078125 370.859375 C81.25182476 374.99678011 77.31904634 376.91591492 71.0703125 377.671875 C66.68847956 378.58057573 64.70356298 379.86824493 62.265625 383.50390625 C60.05102548 387.2054156 58.0661085 391.02518248 56.08789062 394.85693359 C53.89267042 398.92682421 51.02042722 402.3770876 48.0078125 405.859375 C47.35683594 406.64183594 46.70585937 407.42429687 46.03515625 408.23046875 C27.52337121 429.76595733 0.10931221 445.51792452 -28.46337891 448.08105469 C-29.29401855 448.13938477 -30.1246582 448.19771484 -30.98046875 448.2578125 C-31.79829834 448.32049316 -32.61612793 448.38317383 -33.45874023 448.44775391 C-35.02259009 448.55269751 -36.58937261 448.62215976 -38.15649414 448.64990234 C-40.59413586 448.72044632 -40.59413586 448.72044632 -43.9921875 449.859375 C-45.82517408 452.33693213 -46.83863173 455.01974502 -47.9921875 457.859375 C-49.59765625 460.03125 -49.59765625 460.03125 -51.1796875 461.609375 C-51.94345703 462.40601563 -51.94345703 462.40601563 -52.72265625 463.21875 C-60.33814943 468.72392579 -67.55612224 469.46561817 -76.76953125 469.42578125 C-78.57932213 469.43507912 -78.57932213 469.43507912 -80.42567444 469.44456482 C-82.9663106 469.45163951 -85.50699335 469.44853037 -88.04760742 469.43579102 C-91.91477546 469.42192845 -95.77952025 469.45603398 -99.64648438 469.49414062 C-102.12500059 469.49509199 -104.6035198 469.49323209 -107.08203125 469.48828125 C-108.79965919 469.50816856 -108.79965919 469.50816856 -110.55198669 469.52845764 C-118.97988406 469.43167197 -125.85379353 467.73815959 -132.1346283 461.85133362 C-138.3786348 455.13982676 -141.41659103 448.32241969 -141.19140625 439.08984375 C-140.33658439 429.51919115 -136.22481335 423.11925845 -128.9921875 416.859375 C-121.12745284 411.89148427 -112.52431323 411.70324002 -103.47265625 411.69140625 C-102.57404373 411.68807785 -101.67543121 411.68474945 -100.74958801 411.68132019 C-98.85609444 411.67627898 -96.96259207 411.67391099 -95.0690918 411.67407227 C-92.19890425 411.67188961 -89.3291039 411.65371437 -86.45898438 411.63476562 C-84.6093763 411.6318302 -82.75976642 411.6298464 -80.91015625 411.62890625 C-80.06502975 411.62172073 -79.21990326 411.61453522 -78.34916687 411.60713196 C-67.94447989 411.64628852 -59.26774923 413.19725068 -51.3046875 420.234375 C-48.12922074 423.83895888 -45.51869544 427.27985117 -43.9921875 431.859375 C-19.09329872 433.21749621 5.76803073 422.22933187 24.36108398 406.22973633 C33.25002789 398.24058926 40.0397555 389.17600978 46.0078125 378.859375 C45.30696533 378.87508545 44.60611816 378.8907959 43.8840332 378.90698242 C40.69620899 378.96949912 37.50851399 379.00841881 34.3203125 379.046875 C32.66612305 379.08458008 32.66612305 379.08458008 30.97851562 379.12304688 C29.91181641 379.13271484 28.84511719 379.14238281 27.74609375 379.15234375 C26.76680908 379.1680542 25.78752441 379.18376465 24.77856445 379.19995117 C21.48416434 378.79500905 19.66112102 377.82831093 17.0078125 375.859375 C14.0078125 370.79040948 14.0078125 370.79040948 14.0078125 367.859375 C12.945625 367.89417969 11.8834375 367.92898438 10.7890625 367.96484375 C0.70369573 368.20096798 -7.55773988 368.15851842 -15.34796906 360.77490902 C-20.93702506 354.26359238 -21.57841958 346.07842432 -21.50976562 337.86108398 C-21.52027954 336.28586975 -21.52027954 336.28586975 -21.53100586 334.67883301 C-21.54848693 331.23743571 -21.53699862 327.79687315 -21.5234375 324.35546875 C-21.52613504 321.94751326 -21.53001963 319.53955884 -21.53503418 317.13160706 C-21.54091569 312.09747902 -21.53240863 307.06363582 -21.51367188 302.02954102 C-21.49087134 295.59144414 -21.50402168 289.15401394 -21.52796173 282.71594143 C-21.54244539 277.74781815 -21.53780205 272.77985183 -21.52745056 267.81172371 C-21.52479104 265.43836449 -21.52802564 263.0649908 -21.53736877 260.69164848 C-21.54757768 257.37014103 -21.53197187 254.04969993 -21.50976562 250.72827148 C-21.51786255 249.75710892 -21.52595947 248.78594635 -21.53430176 247.78535461 C-21.44349321 240.41826788 -19.83552422 234.24537638 -15.02734375 228.51953125 C-14.37636719 227.99230469 -13.72539062 227.46507812 -13.0546875 226.921875 C-12.40628906 226.37660156 -11.75789063 225.83132813 -11.08984375 225.26953125 C-5.67500209 221.6293863 -1.00835479 221.60450495 5.3203125 221.734375 C6.15626953 221.74339844 6.99222656 221.75242187 7.85351562 221.76171875 C9.90507219 221.78516511 11.95648027 221.82103234 14.0078125 221.859375 C14.13542969 221.08980469 14.26304687 220.32023438 14.39453125 219.52734375 C15.29785995 215.59757622 17.35526616 212.94994272 20.72363281 210.72705078 C23.81196374 209.55390754 26.44234012 209.63511647 29.7421875 209.6640625 C30.90975586 209.66905762 32.07732422 209.67405273 33.28027344 209.67919922 C34.75786133 209.69740723 36.23544922 209.71561523 37.7578125 209.734375 C42.4603125 209.775625 47.1628125 209.816875 52.0078125 209.859375 C51.6778125 195.669375 51.3478125 181.479375 51.0078125 166.859375 C47.0478125 165.869375 43.0878125 164.879375 39.0078125 163.859375 C35.88231528 161.89477675 33.61011027 160.32747356 31.0078125 157.859375 C30.45351563 157.34503906 29.89921875 156.83070313 29.328125 156.30078125 C24.16811525 150.94823382 22.48798077 144.57254237 20.30273438 137.61425781 C11.88279062 110.9722052 -0.04257805 88.532329 -18.9921875 67.859375 C-19.63027344 67.13878906 -20.26835937 66.41820313 -20.92578125 65.67578125 C-45.35958288 39.5005951 -83.94447066 22.35472743 -119.50830078 20.6953125 C-166.71734635 19.25142682 -208.0360881 31.3513412 -242.9921875 63.859375 C-243.65992188 64.46136719 -244.32765625 65.06335938 -245.015625 65.68359375 C-256.06804227 76.08188836 -264.15257435 89.43334432 -270.9921875 102.859375 C-271.3010791 103.46233398 -271.6099707 104.06529297 -271.92822266 104.68652344 C-276.97176095 114.76260593 -280.07880753 125.32417118 -282.97680664 136.19262695 C-286.15879574 147.6976453 -290.59779129 156.51703155 -300.9921875 162.859375 C-305.44105036 165.0917793 -308.92680914 165.859375 -313.9921875 165.859375 C-313.9921875 180.379375 -313.9921875 194.899375 -313.9921875 209.859375 C-304.7180279 209.70161165 -304.7180279 209.70161165 -295.44482422 209.49902344 C-294.28225098 209.4890332 -293.11967773 209.47904297 -291.921875 209.46875 C-290.73835449 209.44780273 -289.55483398 209.42685547 -288.33544922 209.40527344 C-284.28361931 209.95561692 -282.16782921 211.33249546 -278.9921875 213.859375 C-276.80516388 216.84830729 -275.9921875 218.13881954 -275.9921875 221.859375 C-274.785625 221.81296875 -273.5790625 221.7665625 -272.3359375 221.71875 C-270.72137914 221.68120213 -269.10679372 221.64480523 -267.4921875 221.609375 C-266.30496094 221.55910156 -266.30496094 221.55910156 -265.09375 221.5078125 C-258.08630331 221.39293632 -253.07562993 223.20568064 -247.75 227.7890625 C-247.21117187 228.43101562 -246.67234375 229.07296875 -246.1171875 229.734375 C-245.56289062 230.37117187 -245.00859375 231.00796875 -244.4375 231.6640625 C-240.43271366 237.74700823 -240.6867771 243.95648864 -240.7421875 250.984375 C-240.73445312 251.97308594 -240.72671875 252.96179688 -240.71875 253.98046875 C-240.72132813 254.93308594 -240.72390625 255.88570313 -240.7265625 256.8671875 C-240.72881836 257.72973145 -240.73107422 258.59227539 -240.73339844 259.48095703 C-241.01356275 262.05582564 -241.64114409 263.66317215 -242.9921875 265.859375 C-245.66851776 267.9409652 -247.10972418 267.85525091 -250.5546875 267.734375 C-253.9921875 266.859375 -253.9921875 266.859375 -255.68164062 265.09375 C-257.16199114 262.56987371 -257.37244238 261.13637547 -257.3984375 258.234375 C-257.42035156 257.36296875 -257.44226563 256.4915625 -257.46484375 255.59375 C-257.48307292 253.77083333 -257.50130208 251.94791667 -257.51953125 250.125 C-257.54144531 249.25359375 -257.56335938 248.3821875 -257.5859375 247.484375 C-257.59302734 246.69289063 -257.60011719 245.90140625 -257.60742188 245.0859375 C-257.90813386 242.33948743 -257.90813386 242.33948743 -260.9921875 238.859375 C-265.9421875 238.529375 -270.8921875 238.199375 -275.9921875 237.859375 C-275.9921875 275.479375 -275.9921875 313.099375 -275.9921875 351.859375 C-262.70589386 352.44632207 -262.70589386 352.44632207 -257.9921875 346.859375 C-257.40654538 344.23390201 -257.40654538 344.23390201 -257.50976562 341.328125 C-257.49955383 339.66620117 -257.49955383 339.66620117 -257.48913574 337.97070312 C-257.50045532 336.77896484 -257.5117749 335.58722656 -257.5234375 334.359375 C-257.51638794 333.13154297 -257.50933838 331.90371094 -257.5020752 330.63867188 C-257.47999157 326.71202846 -257.48306237 322.78606268 -257.4921875 318.859375 C-257.50419505 313.69233806 -257.49060337 308.52632191 -257.4609375 303.359375 C-257.47225708 302.16763672 -257.48357666 300.97589844 -257.49523926 299.74804688 C-257.48502747 298.08612305 -257.48502747 298.08612305 -257.47460938 296.390625 C-257.47779175 295.41673828 -257.48097412 294.44285156 -257.48425293 293.43945312 C-256.84683388 290.09723309 -255.65495572 288.91853084 -252.9921875 286.859375 C-248.85737278 286.18276895 -246.83996985 286.30916425 -243.30664062 288.60229492 C-239.72346176 293.64482543 -240.31564856 298.49636959 -240.3984375 304.53515625 C-240.39839722 305.77428268 -240.39835693 307.01340912 -240.39831543 308.29008484 C-240.40504429 311.58035429 -240.43502261 314.8694147 -240.47399902 318.15942383 C-240.49213108 320.16563291 -240.49476383 322.17120931 -240.49121094 324.17749023 C-240.48453321 328.04699359 -240.49971765 331.91573002 -240.5234375 335.78515625 C-240.52363892 336.97498611 -240.52384033 338.16481598 -240.52404785 339.39070129 C-240.65864858 348.90250044 -242.001312 355.8684995 -248.9921875 362.859375 C-255.34538383 367.3280277 -260.64498453 368.00912203 -268.2421875 367.921875 C-268.98726563 367.91736328 -269.73234375 367.91285156 -270.5 367.90820312 C-272.3307639 367.89646746 -274.16148623 367.8785335 -275.9921875 367.859375 C-276.4253125 369.27283203 -276.4253125 369.27283203 -276.8671875 370.71484375 C-278.29042889 374.69300111 -280.2063832 376.96647285 -283.9921875 378.859375 C-285.51149199 378.96933487 -287.03542091 379.01843838 -288.55859375 379.03637695 C-289.50718262 379.04921219 -290.45577148 379.06204742 -291.43310547 379.07527161 C-292.46322754 379.08265854 -293.49334961 379.09004547 -294.5546875 379.09765625 C-295.61574707 379.105728 -296.67680664 379.11379974 -297.77001953 379.12211609 C-300.02293255 379.13596952 -302.27586667 379.14668602 -304.52880859 379.15454102 C-307.9506109 379.17166691 -311.37142514 379.21553218 -314.79296875 379.25976562 C-316.98436791 379.26990022 -319.17577528 379.27841392 -321.3671875 379.28515625 C-322.38111572 379.30266434 -323.39504395 379.32017242 -324.43969727 379.33821106 C-332.49030742 379.31402493 -338.87987326 377.38284055 -345.7421875 373.171875 C-352.74264514 365.9769602 -356.11036479 358.90444486 -355.9921875 348.859375 C-357.21035156 348.90578125 -358.42851562 348.9521875 -359.68359375 349 C-361.30726698 349.03754158 -362.93096695 349.07393917 -364.5546875 349.109375 C-365.75448242 349.15964844 -365.75448242 349.15964844 -366.97851562 349.2109375 C-373.62715368 349.31948669 -377.73339599 347.84781834 -382.734375 343.26171875 C-386.70779748 338.12367244 -387.15195486 334.35148018 -387.20092773 328.04248047 C-387.21071152 327.24695267 -387.2204953 326.45142487 -387.23057556 325.63179016 C-387.26050806 322.99673121 -387.28191265 320.36172309 -387.30078125 317.7265625 C-387.30735308 316.8248444 -387.3139249 315.9231263 -387.32069588 314.9940834 C-387.35328502 310.21807677 -387.37773326 305.44209235 -387.3972168 300.66601562 C-387.41500496 296.72199838 -387.44978543 292.77869947 -387.49975586 288.83496094 C-387.56011077 284.06572753 -387.59071379 279.2971583 -387.60038948 274.52756119 C-387.60892168 272.71513262 -387.62768443 270.90272072 -387.6571331 269.09051132 C-387.92008363 251.98360029 -387.92008363 251.98360029 -382.53919983 245.35794067 C-376.89173864 239.8873369 -371.26629705 239.71046738 -363.7421875 239.796875 C-362.99710937 239.80138672 -362.25203125 239.80589844 -361.484375 239.81054688 C-359.6536111 239.82228254 -357.82288877 239.8402165 -355.9921875 239.859375 C-355.97091797 238.93318359 -355.97091797 238.93318359 -355.94921875 237.98828125 C-355.45903575 229.28422095 -352.66274164 223.12266647 -346.3671875 217.046875 C-341.9921875 213.859375 -341.9921875 213.859375 -330.9921875 209.859375 C-330.6621875 194.679375 -330.3321875 179.499375 -329.9921875 163.859375 C-331.6421875 163.199375 -333.2921875 162.539375 -334.9921875 161.859375 C-342.65027956 157.46306289 -347.99399495 150.29360444 -350.4296875 141.734375 C-351.66611331 133.21677498 -350.6459682 125.50392798 -348.9296875 117.109375 C-348.70708252 116.01681396 -348.48447754 114.92425293 -348.25512695 113.79858398 C-345.2310075 99.5873878 -340.58096406 86.11308355 -334.8046875 72.796875 C-334.48395264 72.05252197 -334.16321777 71.30816895 -333.83276367 70.54125977 C-332.06245875 66.62648741 -330.3943914 63.62974104 -326.9921875 60.859375 C-323.94711256 59.76627117 -322.4286998 59.73755761 -319.3046875 60.609375 C-316.9921875 61.859375 -316.9921875 61.859375 -314.9921875 64.859375 C-314.89086978 70.93843835 -316.53129757 75.39673644 -319.1796875 80.796875 C-325.15403635 93.01986574 -328.90897748 105.6741165 -331.9296875 118.921875 C-332.15350098 119.87320313 -332.37731445 120.82453125 -332.60791016 121.8046875 C-334.09563829 128.70134406 -334.66627079 135.09268759 -331.7421875 141.671875 C-327.9425941 146.42136674 -324.26230501 148.62923247 -318.33203125 149.734375 C-313.13692969 150.01190964 -309.42476765 147.83613419 -305.2421875 144.984375 C-302.13397436 140.66741231 -301.07785674 136.20631945 -299.64794922 131.12109375 C-295.38419006 116.41541064 -290.52932981 102.21484955 -282.9921875 88.859375 C-282.47253418 87.91940674 -282.47253418 87.91940674 -281.94238281 86.96044922 C-260.29416392 48.07089954 -224.6924718 22.37652704 -182.45605469 9.85766602 C-174.40833446 7.57893484 -166.28761917 5.94329019 -157.9921875 4.859375 C-157.27498535 4.7651123 -156.5577832 4.67084961 -155.81884766 4.57373047 C-148.10300045 3.68055205 -140.37705339 3.61606738 -132.6171875 3.609375 C-131.91042877 3.60870026 -131.20367004 3.60802551 -130.47549438 3.60733032 C-118.75881923 3.62502848 -107.4598797 4.34129087 -95.9921875 6.859375 C-95.21697754 7.02566406 -94.44176758 7.19195312 -93.64306641 7.36328125 C-60.80634798 14.63489411 -33.49633543 31.13273003 -8.9921875 53.859375 C-8.10466797 54.66568359 -8.10466797 54.66568359 -7.19921875 55.48828125 C-1.06994396 61.29726139 3.97497716 68.1070171 9.0078125 74.859375 C9.4296582 75.42092285 9.85150391 75.9824707 10.28613281 76.56103516 C22.45607611 93.00834137 30.86931713 112.13250728 36.40136719 131.74975586 C37.07091448 134.07888554 37.7669019 136.39582834 38.49609375 138.70703125 C38.72208252 139.43156494 38.94807129 140.15609863 39.1809082 140.90258789 C40.66363794 144.41132093 42.81740624 145.90968229 46.0078125 147.859375 C50.66338213 149.69955462 53.89694375 150.17412114 58.7578125 148.796875 C63.14390621 146.18208837 66.36453337 143.7892124 68.0078125 138.859375 C68.61975057 132.39613563 67.50772861 126.74669731 65.5703125 120.609375 C65.17259644 119.32389771 65.17259644 119.32389771 64.7668457 118.01245117 C52.28170922 79.01278088 28.69078496 43.33775849 -3.546875 17.8671875 C-9.72810314 12.791866 -9.72810314 12.791866 -10.55859375 9.859375 C-10.55110617 6.02573446 -10.40840817 4.37649766 -7.9296875 1.296875 C-5.01664289 -0.12865747 -3.20069879 -0.69279195 0 0 Z M-334.9921875 228.859375 C-338.80210989 232.97821001 -340.11126833 236.03015221 -340.13935852 241.58357239 C-340.14651382 242.55506729 -340.15366913 243.52656219 -340.16104126 244.52749634 C-340.16373016 245.59196991 -340.16641907 246.65644348 -340.16918945 247.75317383 C-340.17576065 248.87538834 -340.18233185 249.99760284 -340.18910217 251.15382385 C-340.20884435 254.8746853 -340.22049907 258.59550639 -340.23046875 262.31640625 C-340.23454428 263.58594336 -340.2386198 264.85548046 -340.24281883 266.16348839 C-340.26153059 272.18842512 -340.2760964 278.21333735 -340.2844308 284.23829538 C-340.29420245 291.18696125 -340.32052261 298.13530851 -340.36093169 305.08386213 C-340.3947551 311.10719698 -340.40657774 317.13037736 -340.41063499 323.15381432 C-340.41551149 325.71388601 -340.42715548 328.27395403 -340.44567299 330.83396339 C-340.46997098 334.4153658 -340.4691161 337.99593331 -340.4621582 341.57739258 C-340.47496826 342.63579346 -340.48777832 343.69419434 -340.50097656 344.78466797 C-340.44935801 352.06939749 -339.15625118 355.18906113 -334.4296875 360.671875 C-323.50931202 369.69305475 -306.15680132 362.859375 -291.9921875 362.859375 C-291.9921875 317.649375 -291.9921875 272.439375 -291.9921875 225.859375 C-314.25063178 224.14655346 -314.25063178 224.14655346 -334.9921875 228.859375 Z M30.0078125 225.859375 C30.00194626 226.6648175 29.99608002 227.47026001 29.99003601 228.30010986 C29.93211967 235.89260357 29.86004951 243.48476871 29.77209759 251.07696915 C29.72737977 254.98016544 29.68812701 258.88325702 29.66137695 262.78662109 C29.63535766 266.55397655 29.59496568 270.32092935 29.54462624 274.08803558 C29.52794808 275.52487935 29.51643968 276.96179278 29.51019859 278.39871979 C29.50056878 280.41208428 29.47081373 282.42532202 29.44018555 284.43847656 C29.42908249 285.58431213 29.41797943 286.73014771 29.40653992 287.91070557 C28.96891336 291.14704199 28.27208004 292.54449852 26.0078125 294.859375 C24.0703125 295.35546875 24.0703125 295.35546875 22.0078125 295.296875 C20.986875 295.29494141 20.986875 295.29494141 19.9453125 295.29296875 C17.39686386 294.72265061 16.60931367 293.9143211 15.0078125 291.859375 C14.60908508 289.44856262 14.60908508 289.44856262 14.57543945 286.56176758 C14.55564529 285.48087357 14.53585114 284.39997955 14.51545715 283.28633118 C14.50906723 282.12063095 14.50267731 280.95493073 14.49609375 279.75390625 C14.46916695 277.96239388 14.46916695 277.96239388 14.44169617 276.13468933 C14.38744217 272.31378732 14.35364821 268.49301129 14.3203125 264.671875 C14.28715285 262.08396678 14.25266448 259.49607523 14.21679688 256.90820312 C14.13170693 250.55870672 14.06342097 244.20919431 14.0078125 237.859375 C11.58926804 237.72400871 9.17831467 237.62517221 6.7578125 237.546875 C6.07589844 237.50498047 5.39398438 237.46308594 4.69140625 237.41992188 C1.26331376 237.33671575 -0.56335505 237.4877224 -3.18833923 239.76269531 C-5.75008883 244.16046983 -5.56014936 247.88783722 -5.52563477 252.89453125 C-5.53425034 253.90160126 -5.54286591 254.90867126 -5.55174255 255.94625854 C-5.57442634 259.27172622 -5.56765931 262.59635292 -5.55859375 265.921875 C-5.56382799 268.23445893 -5.57010373 270.54704072 -5.57737732 272.85961914 C-5.58778583 277.7050176 -5.58321294 282.55012246 -5.56860352 287.39550781 C-5.55140958 293.60669123 -5.57491713 299.81695014 -5.61009312 306.0280304 C-5.63204562 310.80300026 -5.63063085 315.57774814 -5.6223278 320.35275269 C-5.62150723 322.64290379 -5.62839086 324.93307102 -5.64309883 327.22317505 C-5.66050558 330.42410256 -5.64603335 333.62335872 -5.62329102 336.82421875 C-5.63498322 337.77086395 -5.64667542 338.71750916 -5.65872192 339.69284058 C-5.59327473 344.21695293 -5.45708025 346.23818344 -2.67466736 349.95605469 C0.84848355 352.45586272 3.04617223 352.37160118 7.3203125 352.171875 C9.20169922 352.10419922 9.20169922 352.10419922 11.12109375 352.03515625 C12.07371094 351.97714844 13.02632813 351.91914063 14.0078125 351.859375 C14.02763184 350.90571045 14.04745117 349.9520459 14.06787109 348.96948242 C14.14396264 345.43015201 14.23267411 341.89123083 14.32519531 338.35229492 C14.36347048 336.82080161 14.39832599 335.28921885 14.4296875 333.75756836 C14.47537057 331.5555017 14.53335787 329.35405004 14.59375 327.15234375 C14.60530121 326.46786667 14.61685242 325.78338959 14.62875366 325.07817078 C14.74054994 321.47476663 14.95175803 319.9434567 17.0078125 316.859375 C20.92791749 315.98824056 24.17803708 315.48065585 28.0078125 316.859375 C28.80252897 319.68258866 29.15137267 322.23965724 29.21313477 325.16894531 C29.2430526 326.4297995 29.2430526 326.4297995 29.27357483 327.71612549 C29.29028732 328.61417908 29.30699982 329.51223267 29.32421875 330.4375 C29.34499985 331.3640741 29.36578094 332.29064819 29.38719177 333.24530029 C29.45248211 336.19991772 29.51147681 339.15462268 29.5703125 342.109375 C29.61351723 344.11459232 29.65713215 346.11980085 29.70117188 348.125 C29.80814249 353.03636904 29.90946768 357.94782597 30.0078125 362.859375 C35.32801272 362.93367415 40.64790919 362.98804747 45.96850586 363.02416992 C47.77747867 363.03923255 49.5864151 363.05968677 51.39526367 363.08569336 C53.99927765 363.1221882 56.6028077 363.13912657 59.20703125 363.15234375 C60.01242844 363.16782761 60.81782562 363.18331146 61.64762878 363.19926453 C66.28437427 363.20064622 69.22481256 362.83037519 73.0078125 359.859375 C76.5252933 355.8533552 78.12962591 353.55207952 78.14825439 348.25543213 C78.15396454 347.28531189 78.15967468 346.31519165 78.16555786 345.31567383 C78.16667572 344.24760498 78.16779358 343.17953613 78.16894531 342.07910156 C78.17391022 340.95703308 78.17887512 339.8349646 78.18399048 338.67889404 C78.1986412 334.95258987 78.20541938 331.22632829 78.2109375 327.5 C78.21668708 324.91648354 78.22244483 322.3329671 78.22821045 319.74945068 C78.23738337 315.01939839 78.24367995 310.28936318 78.2467072 305.55930352 C78.2511843 298.60219562 78.26871434 291.64528454 78.2977078 284.68823647 C78.32195602 278.6601026 78.3296529 272.6320616 78.33138275 266.60387421 C78.33441169 264.04102254 78.34244828 261.47817175 78.35556793 258.91535187 C78.37261402 255.32915841 78.37075122 251.74344404 78.36425781 248.15722656 C78.3734726 247.09725464 78.38268738 246.03728271 78.3921814 244.94519043 C78.36129214 239.50186689 78.13726515 235.52953162 75.0078125 230.859375 C69.74069222 225.98728874 65.54219769 225.71672036 58.62109375 225.76171875 C57.80408493 225.7631337 56.98707611 225.76454865 56.14530945 225.76600647 C53.53693982 225.77160206 50.92865616 225.78415371 48.3203125 225.796875 C46.55143353 225.80189057 44.78255322 225.80645338 43.01367188 225.81054688 C38.67835231 225.82157004 34.34309698 225.83883162 30.0078125 225.859375 Z M-370.9921875 256.859375 C-372.12725553 260.26457908 -372.12611061 262.87933731 -372.13745117 266.47045898 C-372.14080978 267.13746826 -372.1441684 267.80447754 -372.14762878 268.49169922 C-372.15712656 270.69630801 -372.15908125 272.90084077 -372.16015625 275.10546875 C-372.16336945 276.6385959 -372.16673357 278.17172274 -372.17024231 279.70484924 C-372.1762305 282.91855582 -372.17808251 286.13223551 -372.17749023 289.34594727 C-372.17738858 293.46298172 -372.19104506 297.57984383 -372.20826244 301.69683743 C-372.21938279 304.86327404 -372.22140944 308.02966898 -372.22088051 311.19612312 C-372.22206041 312.71396542 -372.22648275 314.23180881 -372.23421288 315.74963188 C-372.24401436 317.87284284 -372.24113438 319.99567945 -372.23510742 322.11889648 C-372.23653244 323.32674301 -372.23795746 324.53458954 -372.23942566 325.77903748 C-372.16288768 329.14167534 -372.16288768 329.14167534 -369.9921875 332.859375 C-365.3721875 332.859375 -360.7521875 332.859375 -355.9921875 332.859375 C-355.9921875 307.449375 -355.9921875 282.039375 -355.9921875 255.859375 C-363.75670539 255.23885925 -363.75670539 255.23885925 -370.9921875 256.859375 Z M94.0078125 255.859375 C94.0078125 281.269375 94.0078125 306.679375 94.0078125 332.859375 C98.6278125 332.859375 103.2478125 332.859375 108.0078125 332.859375 C110.12117743 328.63264514 110.25618953 326.74434228 110.25073242 322.11889648 C110.25263077 321.45013489 110.25452911 320.78137329 110.25648499 320.09234619 C110.26018085 317.88826667 110.24950626 315.68451884 110.23828125 313.48046875 C110.23708872 311.94637592 110.23663644 310.41228236 110.2368927 308.87818909 C110.23532992 305.66622331 110.22705546 302.45436931 110.21362305 299.24243164 C110.19661922 295.12424689 110.19280926 291.00618476 110.19356823 286.88796902 C110.19329641 283.72157113 110.18781344 280.55520008 110.18056679 277.38881111 C110.17738391 275.87015041 110.1754136 274.35148666 110.17467308 272.8328228 C110.1725063 270.71198209 110.16375516 268.59127171 110.15307617 266.47045898 C110.14926437 265.26340805 110.14545258 264.05635712 110.14152527 262.81272888 C110.13978982 259.80031267 110.13978982 259.80031267 109.0078125 256.859375 C104.52574948 254.61834349 99.01891129 255.859375 94.0078125 255.859375 Z M-121.8671875 432.546875 C-124.25515984 436.26930247 -124.9921875 438.44821127 -124.9921875 442.859375 C-123.33923686 447.54273513 -121.16048039 450.17975814 -116.9921875 452.859375 C-112.39239049 454.16131522 -107.74112339 454.02096545 -103 454.02734375 C-102.13583466 454.03067215 -101.27166931 454.03400055 -100.38131714 454.03742981 C-98.55743947 454.04248042 -96.73355262 454.04483871 -94.90966797 454.04467773 C-92.1336326 454.04686206 -89.35799629 454.06503161 -86.58203125 454.08398438 C-84.80468885 454.0869192 -83.02734457 454.0889034 -81.25 454.08984375 C-80.01529465 454.10062202 -80.01529465 454.10062202 -78.75564575 454.11161804 C-72.58804026 454.08741971 -67.26715821 453.49141921 -62.1171875 449.796875 C-59.29584986 445.89679061 -58.6965726 442.63268619 -58.9921875 437.859375 C-60.66268627 433.68312806 -63.30836578 431.37515568 -66.9921875 428.859375 C-69.73845106 427.99329602 -72.22838525 427.72977898 -75.09887695 427.71411133 C-75.89683182 427.70773148 -76.69478668 427.70135162 -77.516922 427.69477844 C-78.79825264 427.69310921 -78.79825264 427.69310921 -80.10546875 427.69140625 C-80.99324509 427.68807785 -81.88102142 427.68474945 -82.79570007 427.68132019 C-84.67263268 427.67626274 -86.54957426 427.6739115 -88.42651367 427.67407227 C-91.28384406 427.67189091 -94.14078501 427.65373684 -96.99804688 427.63476562 C-98.82551952 427.63183035 -100.65299399 427.62984645 -102.48046875 427.62890625 C-103.32861649 427.62172073 -104.17676422 427.61453522 -105.0506134 427.60713196 C-111.56447202 427.63195293 -116.91082456 427.91375312 -121.8671875 432.546875 Z " fill="#000000" transform="translate(386.9921875,43.140625)"/>
<path d="M0 0 C31.70092462 -1.0298323 59.97221585 11.47658721 82.953125 32.7265625 C101.4599104 51.20368959 112.83131371 74.96092106 116.03125 100.81640625 C116.14690674 103.11369385 116.14690674 103.11369385 117.390625 104.16015625 C118.1640625 103.17015625 118.1640625 103.17015625 118.953125 102.16015625 C121.390625 100.16015625 121.390625 100.16015625 124.890625 99.66015625 C128.390625 100.16015625 128.390625 100.16015625 130.765625 101.91015625 C133.3128218 105.43704412 133.3128218 105.43704412 133.390625 108.16015625 C131.30722624 114.34907609 127.9772465 118.22081992 123.453125 122.84765625 C122.83244141 123.49798828 122.21175781 124.14832031 121.57226562 124.81835938 C119.8566719 126.61068892 118.12577211 128.38678886 116.390625 130.16015625 C115.63394531 130.95164063 114.87726563 131.743125 114.09765625 132.55859375 C111.83374261 134.68263172 110.49092165 135.08633966 107.390625 135.16015625 C102.95270766 133.30353766 100.18465734 131.24242018 97.078125 127.59765625 C94.71561672 124.83737872 92.37275601 122.14215189 89.8125 119.5625 C82.81776792 112.44678985 82.81776792 112.44678985 82.515625 107.78515625 C83.390625 104.16015625 83.390625 104.16015625 85.515625 101.66015625 C88.86384387 99.91325945 90.6664413 99.60549059 94.390625 100.16015625 C95.75635578 101.11543485 97.09599528 102.11053172 98.390625 103.16015625 C98.28837226 79.94878401 84.88085747 58.78711405 69.078125 42.82421875 C50.64885207 25.64550363 24.99853326 16.42167996 -0.06640625 16.91015625 C-26.33066165 18.76342234 -50.13974073 29.16779648 -68.609375 48.16015625 C-73.36780475 53.67895364 -77.72452891 59.5417421 -81.484375 65.78515625 C-84.68629808 70.87056349 -84.68629808 70.87056349 -87.609375 72.16015625 C-91.00623318 72.04096824 -93.54938115 71.7414432 -96.546875 70.09765625 C-98.27938635 66.93837085 -98.06394652 63.64202299 -97.609375 60.16015625 C-96.38758446 57.60392782 -95.27770975 55.61859665 -93.671875 53.34765625 C-93.26727051 52.74945068 -92.86266602 52.15124512 -92.44580078 51.53491211 C-88.50367735 45.80167689 -84.20583457 40.38262617 -79.609375 35.16015625 C-79.0834375 34.55042969 -78.5575 33.94070312 -78.015625 33.3125 C-58.00261342 11.71682679 -28.65399356 1.7587032 0 0 Z " fill="#000000" transform="translate(252.609375,101.83984375)"/>
<path d="M0 0 C5.17516212 3.52351464 8.99638625 8.23062229 13 13 C14.10021484 14.21623047 14.10021484 14.21623047 15.22265625 15.45703125 C21.51288134 22.67914154 21.51288134 22.67914154 21.6875 27.4375 C21 31 21 31 19.875 32.9375 C17.17323836 34.46849826 15.10564495 34.8757742 12 35 C9.125 33.5625 9.125 33.5625 7 32 C10.48434545 55.03828409 23.86512026 75.89613756 41.92578125 90.33984375 C63.55655548 106.09825337 88.93656158 112.79226691 115.58789062 109.69970703 C136.74022187 106.31654077 154.66908417 96.85962185 170 82 C170.59941406 81.4740625 171.19882812 80.948125 171.81640625 80.40625 C176.62426865 76.0334378 179.98221797 70.77830896 183.44921875 65.32958984 C185.67398559 61.85428299 187.77527786 58.64676786 191 56 C194.90614682 55.44197903 197.05111671 55.41607182 200.4375 57.5 C202.17039456 60.27263129 202.75069573 62.38793099 202.57421875 65.66796875 C201.32149179 70.75557415 198.05480687 74.83329025 195 79 C194.40960938 79.8146875 193.81921875 80.629375 193.2109375 81.46875 C174.89774183 105.4707256 148.6521684 121.83797712 118.6171875 126.4921875 C88.48628691 130.29042575 58.7358159 123.48151017 33.97265625 105.84375 C31.21074794 103.65641372 28.59431144 101.38354759 26 99 C25.5157959 98.55817383 25.0315918 98.11634766 24.53271484 97.66113281 C4.58489574 79.25662813 -5.86927658 56.19490915 -12 30 C-12.59941406 30.64066406 -13.19882813 31.28132813 -13.81640625 31.94140625 C-16.58865569 34.55495805 -18.21618816 34.92277935 -22 35 C-24.32731556 33.86220128 -26.16840714 32.83159286 -28 31 C-28.91641692 24.47052947 -28.91641692 24.47052947 -26.82421875 21.11328125 C-24.95957546 18.99052505 -22.9928719 17.00314443 -21 15 C-20.07010966 13.98278493 -19.1459683 12.96029503 -18.2265625 11.93359375 C-17.25526156 10.85151472 -16.28390745 9.76948342 -15.3125 8.6875 C-14.84932373 8.17155273 -14.38614746 7.65560547 -13.90893555 7.12402344 C-6.4597216 -1.03355546 -6.4597216 -1.03355546 0 0 Z " fill="#000000" transform="translate(154,202)"/>
<path d="M0 0 C2.48038907 3.7205836 2.46337203 5.59796571 2 10 C0.4375 12.4375 0.4375 12.4375 -2 14 C-7.97806341 14.60444044 -11.61798509 13.11525834 -16.75 10.4375 C-69.44395925 -15.55880483 -131.12070542 -15.12591349 -186.3125 2.8125 C-220.26920453 14.43038168 -250.28525678 35.15612121 -273 63 C-275.88861709 64.44430855 -277.79647701 64.37688506 -281 64 C-283.875 61.875 -283.875 61.875 -286 59 C-286.42102228 55.50882649 -286.37206935 53.62856402 -284.56640625 50.578125 C-283.90511719 49.80984375 -283.24382812 49.0415625 -282.5625 48.25 C-281.83160156 47.39277344 -281.10070312 46.53554687 -280.34765625 45.65234375 C-279.18556641 44.33943359 -279.18556641 44.33943359 -278 43 C-277.25621094 42.13503906 -276.51242187 41.27007812 -275.74609375 40.37890625 C-271.1512164 35.12875944 -266.38691103 30.42275126 -261 26 C-260.5138623 25.58556641 -260.02772461 25.17113281 -259.52685547 24.74414062 C-225.82718622 -3.98211787 -183.6789226 -19.7259844 -140 -25 C-139.26628174 -25.0935376 -138.53256348 -25.1870752 -137.77661133 -25.28344727 C-92.61536165 -30.24676197 -38.88413618 -25.68433744 0 0 Z " fill="#000000" transform="translate(361,26)"/>
<path d="M0 0 C3.76386074 3.23867087 5.47091274 6.00933315 5.94515991 11.0524292 C6.0350959 14.49475653 6.02431877 17.92395531 5.98046875 21.3671875 C5.97622391 22.62387238 5.97197906 23.88055725 5.96760559 25.17532349 C5.95369122 28.49965735 5.92678624 31.8233623 5.89349365 35.14752197 C5.86268246 38.54620966 5.84907678 41.94496259 5.83398438 45.34375 C5.80095021 52.00017251 5.75077623 58.65629998 5.6875 65.3125 C6.3074585 65.29437256 6.92741699 65.27624512 7.56616211 65.25756836 C8.37835205 65.24346924 9.19054199 65.22937012 10.02734375 65.21484375 C10.83292725 65.19671631 11.63851074 65.17858887 12.46850586 65.15991211 C14.6875 65.3125 14.6875 65.3125 17.25 66.875 C19.25081202 70.26768126 19.24076548 72.43964161 18.6875 76.3125 C17.25 78.6875 17.25 78.6875 14.6875 80.3125 C12.46850586 80.68994141 12.46850586 80.68994141 10.02734375 80.9140625 C9.21515381 80.99221191 8.40296387 81.07036133 7.56616211 81.15087891 C6.94620361 81.20421387 6.32624512 81.25754883 5.6875 81.3125 C5.71368408 82.04887695 5.73986816 82.78525391 5.7668457 83.54394531 C5.87083686 86.88324616 5.9358341 90.22220655 6 93.5625 C6.04189453 94.72136719 6.08378906 95.88023437 6.12695312 97.07421875 C6.25077126 105.64243402 6.25077126 105.64243402 3.359375 109.08203125 C0.13825989 110.56543952 -1.80467464 110.83494208 -5.3125 110.3125 C-8.4484157 108.53265595 -9.15352736 107.78941793 -10.3125 104.3125 C-10.39459792 102.53936149 -10.41996294 100.76329225 -10.41015625 98.98828125 C-10.40693359 97.96025391 -10.40371094 96.93222656 -10.40039062 95.87304688 C-10.38782227 94.26526367 -10.38782227 94.26526367 -10.375 92.625 C-10.37048828 91.54154297 -10.36597656 90.45808594 -10.36132812 89.34179688 C-10.34953743 86.66530915 -10.33308063 83.98893223 -10.3125 81.3125 C-11.40191895 81.32821045 -12.49133789 81.3439209 -13.61376953 81.36010742 C-17.67277575 81.41458978 -21.7317499 81.44891639 -25.79101562 81.47729492 C-27.54465173 81.49233995 -29.29825047 81.51278104 -31.05175781 81.53881836 C-33.57887009 81.57539121 -36.10548296 81.5922692 -38.6328125 81.60546875 C-39.80035568 81.62869453 -39.80035568 81.62869453 -40.9914856 81.65238953 C-46.629681 81.65411525 -50.60952651 80.46670566 -55.12109375 76.87109375 C-57.5963774 73.6329358 -57.6217117 70.26802311 -57.3125 66.3125 C-56.22021484 63.58422852 -56.22021484 63.58422852 -54.7109375 60.69140625 C-54.16091064 59.63655029 -53.61088379 58.58169434 -53.04418945 57.49487305 C-50.41697815 52.66677501 -47.6787775 47.9149074 -44.875 43.1875 C-40.95149622 36.53437149 -37.04769815 29.87362034 -33.2421875 23.15234375 C-32.56841992 21.96687896 -31.89451173 20.78149407 -31.22045898 19.59619141 C-29.93247754 17.32726313 -28.65047523 15.05492753 -27.37524414 12.77880859 C-20.62753885 0.93318566 -20.62753885 0.93318566 -14.5 -2.0625 C-9.01200139 -3.13857816 -4.98471226 -2.53938172 0 0 Z M-11.3125 17.3125 C-11.8998291 18.38226074 -11.8998291 18.38226074 -12.49902344 19.47363281 C-19.72232581 32.60882657 -26.98330793 45.68970788 -34.80566406 58.48144531 C-35.27069336 59.24295898 -35.73572266 60.00447266 -36.21484375 60.7890625 C-36.62210693 61.44986816 -37.02937012 62.11067383 -37.44897461 62.79150391 C-38.39478613 64.16593216 -38.39478613 64.16593216 -38.3125 65.3125 C-29.0725 65.3125 -19.8325 65.3125 -10.3125 65.3125 C-10.3125 49.4725 -10.3125 33.6325 -10.3125 17.3125 C-10.6425 17.3125 -10.9725 17.3125 -11.3125 17.3125 Z " fill="#000000" transform="translate(306.3125,159.6875)"/>
<path d="M0 0 C6.86907972 5.67876988 10.25339719 13.18881322 11.37890625 21.94921875 C12.14239212 40.79007984 -0.47457887 55.84258784 -11.171875 70.16015625 C-15.98283584 76.63059409 -20.4623126 83.33695901 -25 90 C-23.96593018 89.97905273 -22.93186035 89.95810547 -21.86645508 89.93652344 C-18.01812672 89.86394712 -14.16985846 89.81813683 -10.32104492 89.78027344 C-8.65752987 89.76019793 -6.99408504 89.73293124 -5.33081055 89.69824219 C-2.9352076 89.64954234 -0.54054008 89.62699144 1.85546875 89.609375 C2.96513252 89.57840729 2.96513252 89.57840729 4.09721375 89.54681396 C7.79444723 89.54521901 9.82290423 89.88664705 12.9675293 91.89941406 C15 94 15 94 15.6640625 96 C15.65117187 96.66 15.63828125 97.32 15.625 98 C15.64433594 98.99 15.64433594 98.99 15.6640625 100 C14.55463882 103.3413231 13.0403902 104.19616747 10 106 C5.96142665 106.60782931 1.95269689 106.56021992 -2.125 106.53125 C-3.89447998 106.53699036 -3.89447998 106.53699036 -5.69970703 106.54284668 C-8.19108942 106.54556581 -10.68250036 106.5382047 -13.17382812 106.52148438 C-16.98632482 106.50007679 -20.79693689 106.52128817 -24.609375 106.546875 C-27.03125416 106.54423173 -29.45313214 106.53910676 -31.875 106.53125 C-33.58453857 106.54339539 -33.58453857 106.54339539 -35.32861328 106.55578613 C-43.17299137 106.46288125 -43.17299137 106.46288125 -47.21606445 104.19995117 C-49.35888686 101.55742035 -49.7541275 99.54309291 -49.52490234 96.15478516 C-48.51246708 91.99862068 -45.9310113 88.98721689 -43.3125 85.6875 C-42.11215995 84.10469947 -40.91431942 82.52000085 -39.71875 80.93359375 C-39.10128906 80.1226123 -38.48382813 79.31163086 -37.84765625 78.47607422 C-34.87248986 74.48900531 -32.09445012 70.37313589 -29.3125 66.25 C-25.92024191 61.23646074 -22.49276288 56.271091 -18.89086914 51.40576172 C-9.58407334 39.03871088 -9.58407334 39.03871088 -5.3125 24.5625 C-6.32962602 19.29193791 -8.01505546 15.65412045 -12.25 12.125 C-17.40925398 10.0143961 -21.86757294 9.37390909 -27.1875 11 C-32.90956979 13.46834383 -35.36399631 18.25854734 -37.625 23.8125 C-39 27 -39 27 -42 29 C-46.03621805 29.61420709 -47.52111041 29.34355123 -50.875 26.9375 C-53 24 -53 24 -53.6875 20.9375 C-52.18543725 12.33477698 -48.04023258 4.81153326 -41.1484375 -0.6015625 C-27.88431436 -9.23530083 -13.1701862 -8.84449454 0 0 Z " fill="#000000" transform="translate(240,164)"/>
</svg>
